<?xml version="1.0" encoding="UTF-8"?>
<svg width="700pt" height="700pt" version="1.1" viewBox="0 0 700 700" xmlns="http://www.w3.org/2000/svg">
 <path d="m520.5 497.69c46.984 5.8281 91.199 16.793 140.12 27.684-4.0977 7.7734-5.707 25.555-5.3945 34.625h-610.44c0.30859-9.0703-1.3047-26.852-5.3945-34.625 48.414-10.785 92.211-21.625 138.66-27.496-0.66016-79.754-9.3867-181.14-4.9492-248.1 3.7148-56.191 22.738-118.49 48.469-169.31 79.426-156.86 154.23-30.875 181.7-59.395 39.98 7.0703 53.195 26.148 73.703 59.395 29.898 48.477 44.754 113.12 48.469 169.31 4.4414 66.902-4.2773 168.18-4.9492 247.91zm-220.42 22.262c30.23 4.1484 67.949 4 98.41-0.34375 0.43359-13.594 1.4609-26.082 3.5195-36.246 11.73-58.047 10.629-51.203 35.547-100.99l2.6367-5.2656c37.211-35.676 27.855-125.63 21.734-173.12-1.1016-8.5234-78.316-46.844-88.344-49.555-3.8281-0.10547-6.3828 0.59766-8.1055 1.8438-9.918 20.746-8.8164 15.668-28.238 28.785-0.91406 0.62109-2.5781-0.023438-4.1562 0.039062v-28.828c-1.7227-1.25-4.2773-1.9531-8.1055-1.8438-10.035 2.7109-5.3477 20.816-4.8086 33.332-5.3789 27.43-26.867-21.039-26.957-21.062-1.4141 0.90625-6.6953 7.6758-7.1289 8.5703-20.785 43.383-45.031-5.5586-49.449 28.711-6.1211 47.496-15.48 137.45 21.734 173.12l2.6367 5.2656c24.918 49.785 23.812 42.941 35.547 100.99 2.0742 10.254 3.1094 22.859 3.5352 36.59zm54.992-177.71c-1.4141 4.0586 23.969 4.0078 15.715-4.2383-2.0508-2.0508-7.7148-1.5508-10.516-0.97266-0.91406 4.3984 0.089844 3.3711-5.1992 5.207zm-21.473 93.582c-34.91-8.6602-69.395-51.637-74.586-57.941 6.6602 17.398 29.617 41.945 56.199 54.566 26.836 12.742 38.23 13.625 64.91 1.5664 27.645-12.492 52.273-38.078 59.18-56.137-5.1914 6.3008-40.648 49.23-75.543 57.922-8.4336 2.0977-21.723 2.1055-30.164 0.015624zm15.684-93.582c1.4141 4.0586-23.969 4.0078-15.715-4.2383 2.0508-2.0508 7.7148-1.5508 10.516-0.97266 0.91406 4.3984-0.089843 3.3711 5.1992 5.207zm4.3516 29.645c-7.9258-0.097656-8.418-5.6562-15.332-1.2578-4.6367 2.9453-20.852 5.3047-27.547 4.957 5.4141-0.50781 12.996 22.469 52.855 22.469 0-11.559-30.012-0.57031-24.598-16.148 5.3164-1.8359 16.785 6.3203 27.367 0.058594 6.8594-4.0586 15.152-2.1211 22.59-2.1211-0.17188-2 1.2227-1.8203 0.30078-3.8711-6.375-1.3477-15.918-2.0234-23.293-6.0078-5.5039-2.9805-6.0156 2.0078-12.344 1.9258z" fill-rule="evenodd"/>
</svg>
