<svg width="1277" height="846" viewBox="0 0 1277 846" fill="none" xmlns="http://www.w3.org/2000/svg">
<g filter="url(#filter0_f_112_12)">
<path fill-rule="evenodd" clip-rule="evenodd" d="M216.02 159.902C216.663 156.701 217 153.39 217 150C217 122.386 194.614 100 167 100C139.386 100 117 122.386 117 150C117 166.744 125.23 181.565 137.866 190.639C126.327 199.817 117.141 210.858 110.748 223.75C68.9134 308.111 162.552 439.752 319.894 517.777C361.152 538.236 402.693 552.978 442.286 562.072C416.817 646.116 420.728 714.794 458.608 737.527C516.381 772.199 631.295 686.866 715.274 546.932C728.431 525.008 740.048 503.045 750.063 481.46C791.758 486.258 840.039 489 891.5 489C1049.18 489 1177 463.256 1177 431.5C1177 399.744 1049.18 374 891.5 374C854.476 374 819.099 375.419 786.635 378.003C803.173 307.058 796.265 250.908 762.725 230.779C724.723 207.973 662 237.087 599.619 299.51C564.817 267.184 521.309 237.032 471.39 212.277C379.442 166.681 286.086 149.484 216.02 159.902Z" fill="#FCC5C5" fill-opacity="0.5"/>
</g>
<defs>
<filter id="filter0_f_112_12" x="0.776978" y="0" width="1276.22" height="845.25" filterUnits="userSpaceOnUse" color-interpolation-filters="sRGB">
<feFlood flood-opacity="0" result="BackgroundImageFix"/>
<feBlend mode="normal" in="SourceGraphic" in2="BackgroundImageFix" result="shape"/>
<feGaussianBlur stdDeviation="50" result="effect1_foregroundBlur_112_12"/>
</filter>
</defs>
</svg>
